<svg width="25" height="25" viewBox="0 0 25 25" fill="none" xmlns="http://www.w3.org/2000/svg">
<path fill-rule="evenodd" clip-rule="evenodd" d="M10.4326 9.7812V9.22498H5.99999V9.7812H10.4326ZM10.4326 14.231H5.99999V14.7872H10.4326V14.231Z" fill="white"/>
<rect x="10.4326" y="9.78125" width="4.44981" height="4.43263" transform="rotate(90 10.4326 9.78125)" fill="#8FC400"/>
<path fill-rule="evenodd" clip-rule="evenodd" d="M14.4929 9.7812V9.22498H10.0603V9.7812H14.4929ZM14.4929 14.231H10.0603V14.7872H14.4929V14.231Z" fill="white"/>
<rect x="14.4929" y="9.78125" width="4.44981" height="4.43263" transform="rotate(90 14.4929 9.78125)" fill="#8FC400"/>
<path fill-rule="evenodd" clip-rule="evenodd" d="M13.9078 9.22498H14.3511V7L21 12.006L14.3511 17.0121V14.7872H13.9078V14.231H14.3511V9.7812H13.9078V9.22498Z" fill="white"/>
<path fill-rule="evenodd" clip-rule="evenodd" d="M13.9078 14.2311V9.78125H14.351V14.2311H13.9078ZM14.7942 15.8598L20.1134 12.0061L14.7942 8.15247V9.78125H14.3511V14.2311H14.7942L14.7942 15.8598Z" fill="#8FC400"/>
</svg>
