<svg width="36" height="35" viewBox="0 0 36 35" fill="none" xmlns="http://www.w3.org/2000/svg">
<path d="M12.5057 24.995C12.5952 26.338 12.2371 27.681 11.6104 28.7554C10.8941 29.9193 9.81968 30.8147 8.65574 31.3519C9.64061 30.5461 10.3569 29.3821 10.6255 28.1287C9.73015 28.5763 9.01388 29.2926 8.47668 30.1879C8.56621 29.024 9.10341 27.9496 9.81968 27.0543C8.29761 29.1135 6.23834 30.7251 4 31.8891C5.25347 30.4565 6.32787 28.8449 7.04414 27.1438C6.14881 27.9496 5.343 28.8449 4.44767 29.6507C4.98487 28.1287 5.43254 26.6066 6.32787 25.2636C7.22321 23.9206 8.65574 22.8462 10.2673 22.7567" stroke="#FBFBFB" stroke-width="1.5" stroke-miterlimit="10"/>
<path d="M13.6696 23.0252C19.2207 24.0101 14.1173 28.3972 14.1173 28.3972C14.1173 28.3972 21.459 27.86 23.4288 20.0706" stroke="#FBFBFB" stroke-width="1.5" stroke-miterlimit="10"/>
<path d="M34.3519 1C10.2673 5.20808 12.3266 22.9357 12.3266 22.9357C12.3266 22.9357 30.1438 24.995 34.3519 1Z" stroke="#FBFBFB" stroke-width="1.5" stroke-miterlimit="10"/>
<path d="M12.3266 21.5928C11.3417 16.0417 6.9546 21.1451 6.9546 21.1451C6.9546 21.1451 7.4918 13.8034 15.2812 11.8336" stroke="#FBFBFB" stroke-width="1.5" stroke-miterlimit="10"/>
<path d="M25.7566 12.9079C27.6356 12.9079 29.1589 11.3846 29.1589 9.50561C29.1589 7.62658 27.6356 6.10333 25.7566 6.10333C23.8776 6.10333 22.3543 7.62658 22.3543 9.50561C22.3543 11.3846 23.8776 12.9079 25.7566 12.9079Z" stroke="#FBFBFB" stroke-width="1.5" stroke-miterlimit="10"/>
<path d="M25.7566 11.1172C26.6467 11.1172 27.3682 10.3957 27.3682 9.50562C27.3682 8.61555 26.6467 7.89401 25.7566 7.89401C24.8666 7.89401 24.145 8.61555 24.145 9.50562C24.145 10.3957 24.8666 11.1172 25.7566 11.1172Z" stroke="#FBFBFB" stroke-width="1.5" stroke-miterlimit="10"/>
</svg>
