<svg width="50" height="50" viewBox="0 0 50 50" fill="none" xmlns="http://www.w3.org/2000/svg">
<rect x="6" y="17" width="12.9412" height="15.5294" rx="1" fill="#FFFF00"/>
<path d="M8.00124 24.7647L11.1765 21.5894L14.3517 24.7647L11.1765 27.9399L8.00124 24.7647Z" fill="#333333" stroke="#333333"/>
<rect x="28" y="17" width="16" height="16" rx="1" fill="#FFFF00"/>
<path d="M32.7071 25L36 21.7071L39.2929 25L36 28.2929L32.7071 25Z" fill="#333333" stroke="#333333"/>
<rect x="20" y="17" width="16" height="16" rx="1" fill="#FFFF00"/>
<path d="M24.7071 25L28 21.7071L31.2929 25L28 28.2929L24.7071 25Z" fill="#333333" stroke="#333333"/>
<rect x="12" y="17" width="16" height="16" rx="1" fill="#FFFF00"/>
<path d="M16.7071 25L20 21.7071L23.2929 25L20 28.2929L16.7071 25Z" fill="#333333" stroke="#333333"/>
<rect x="6" y="17" width="14" height="16" rx="1" fill="#FFFF00"/>
<path d="M12.1 25V22.1667L15.075 25L12.1 27.8333V25Z" fill="#333333" stroke="#333333"/>
<rect x="6.25" y="17.25" width="37.5" height="15.5" rx="0.75" stroke="#333333" stroke-width="0.5"/>
</svg>
