<svg width="50" height="50" viewBox="0 0 50 50" fill="none" xmlns="http://www.w3.org/2000/svg">
<path fill-rule="evenodd" clip-rule="evenodd" d="M15.8889 20.5624V19.45H2V20.5624H15.8889ZM15.8889 29.462H2V30.5745H15.8889V29.462Z" fill="white"/>
<rect x="15.8889" y="20.5624" width="8.89963" height="13.8889" transform="rotate(90 15.8889 20.5624)" fill="#8FC400"/>
<path fill-rule="evenodd" clip-rule="evenodd" d="M28.6111 20.5624V19.45H14.7222V20.5624H28.6111ZM28.6111 29.462H14.7222V30.5745H28.6111L28.6111 29.462Z" fill="white"/>
<rect x="28.6111" y="20.5624" width="8.89963" height="13.8889" transform="rotate(90 28.6111 20.5624)" fill="#8FC400"/>
<path fill-rule="evenodd" clip-rule="evenodd" d="M26.7778 20.5623V19.4498H28.1666V20.5623H26.7778ZM26.7778 30.5744V29.4619H28.1666V30.5744H26.7778ZM49 25.0121L28.1666 35.0242L28.1666 29.6365L28.1666 20.3877L28.1666 15L49 25.0121Z" fill="white"/>
<path fill-rule="evenodd" clip-rule="evenodd" d="M26.7778 29.4619L26.7778 20.5623H28.1667L29.5555 20.5623V17.3048L46.2222 25.0121L29.5555 32.7194V29.4619H28.1666L26.7778 29.4619Z" fill="#8FC400"/>
</svg>
