<svg width="25" height="25" viewBox="0 0 25 25" fill="none" xmlns="http://www.w3.org/2000/svg">
<path d="M24.2188 0.78125V6.05469L21.582 3.41797L18.9453 0.78125H24.2188Z" fill="#333333"/>
<path d="M0.78125 24.2188L24.2188 0.78125L0.78125 24.2188ZM24.2188 0.78125V6.05469L18.9453 0.78125H24.2188Z" stroke="#333333"/>
<path d="M0.78125 18.9453V24.2188H6.05469L4.29688 22.4609L2.53906 20.7031L0.78125 18.9453Z" fill="#333333"/>
<path d="M2.53906 20.7031L20.7031 2.53906M4.29688 22.4609L6.05469 24.2188H0.78125V18.9453L2.53906 20.7031L4.29688 22.4609ZM4.29688 22.4609L2.53906 20.7031L4.29688 22.4609ZM4.29688 22.4609L22.4609 4.29688L4.29688 22.4609Z" stroke="#333333"/>
<path d="M22.4609 4.29688L20.7031 2.53906L2.53906 20.7031L4.29688 22.4609L22.4609 4.29688Z" fill="#333333" stroke="#333333"/>
</svg>
