<svg width="24" height="24" viewBox="0 0 24 24" fill="none" xmlns="http://www.w3.org/2000/svg">
<path d="M9.99988 1.5V9.5C9.99988 9.77614 9.77602 10 9.49988 10H1.49988C1.22374 10 0.999878 10.2239 0.999878 10.5V13.5C0.999878 13.7761 1.22374 14 1.49988 14H9.49988C9.77602 14 9.99988 14.2239 9.99988 14.5V22.5C9.99988 22.7761 10.2237 23 10.4999 23H13.4999C13.776 23 13.9999 22.7761 13.9999 22.5V14.5C13.9999 14.2239 14.2237 14 14.4999 14H22.4999C22.776 14 22.9999 13.7761 22.9999 13.5V10.5C22.9999 10.2239 22.776 10 22.4999 10H14.4999C14.2237 10 13.9999 9.77614 13.9999 9.5V1.5C13.9999 1.22386 13.776 1 13.4999 1H10.4999C10.2237 1 9.99988 1.22386 9.99988 1.5Z" fill="#333333" stroke="#333333" stroke-width="1.5"/>
</svg>
