<svg width="60" height="60" viewBox="0 0 60 60" fill="none" xmlns="http://www.w3.org/2000/svg">
<path fill-rule="evenodd" clip-rule="evenodd" d="M30 45C38.2843 45 45 38.2843 45 30C45 21.7157 38.2843 15 30 15C21.7157 15 15 21.7157 15 30C15 38.2843 21.7157 45 30 45ZM30 40C35.5228 40 40 35.5228 40 30C40 24.4772 35.5228 20 30 20C24.4772 20 20 24.4772 20 30C20 35.5228 24.4772 40 30 40Z" fill="white"/>
<rect x="28" width="5" height="10" rx="2.5" fill="white"/>
<rect y="32" width="5" height="10" rx="2.5" transform="rotate(-90 0 32)" fill="white"/>
<rect x="7" y="10.5355" width="5" height="10" rx="2.5" transform="rotate(-45 7 10.5355)" fill="white"/>
<rect x="42" y="46" width="5" height="10" rx="2.5" transform="rotate(-45 42 46)" fill="white"/>
<rect x="10" y="53" width="5" height="10" rx="2.5" transform="rotate(-135 10 53)" fill="white"/>
<rect x="45.5355" y="17.6066" width="5" height="10" rx="2.5" transform="rotate(-135 45.5355 17.6066)" fill="white"/>
<rect x="50" y="32" width="5" height="10" rx="2.5" transform="rotate(-90 50 32)" fill="white"/>
<rect x="28" y="50" width="5" height="10" rx="2.5" fill="white"/>
</svg>
