<svg width="25" height="25" viewBox="0 0 25 25" fill="none" xmlns="http://www.w3.org/2000/svg">
<path fill-rule="evenodd" clip-rule="evenodd" d="M12.4999 16.6666C14.8011 16.6666 16.6666 14.8011 16.6666 12.4999C16.6666 10.1987 14.8011 8.33325 12.4999 8.33325C10.1987 8.33325 8.33325 10.1987 8.33325 12.4999C8.33325 14.8011 10.1987 16.6666 12.4999 16.6666ZM12.4998 15.2776C14.034 15.2776 15.2776 14.034 15.2776 12.4998C15.2776 10.9657 14.034 9.72204 12.4998 9.72204C10.9657 9.72204 9.72204 10.9657 9.72204 12.4998C9.72204 14.034 10.9657 15.2776 12.4998 15.2776Z" fill="white"/>
<rect x="11.9443" y="4.16663" width="1.38889" height="2.77778" rx="0.694447" fill="white"/>
<rect x="4.16663" y="13.0555" width="1.38889" height="2.77778" rx="0.694446" transform="rotate(-90 4.16663 13.0555)" fill="white"/>
<rect x="6.11108" y="7.09326" width="1.38889" height="2.77778" rx="0.694446" transform="rotate(-45 6.11108 7.09326)" fill="white"/>
<rect x="15.8333" y="16.9445" width="1.38889" height="2.77778" rx="0.694446" transform="rotate(-45 15.8333 16.9445)" fill="white"/>
<rect x="6.94434" y="18.8888" width="1.38889" height="2.77778" rx="0.694446" transform="rotate(-135 6.94434 18.8888)" fill="white"/>
<rect x="16.8154" y="9.05737" width="1.38889" height="2.77778" rx="0.694446" transform="rotate(-135 16.8154 9.05737)" fill="white"/>
<rect x="18.0555" y="13.0555" width="1.38889" height="2.77778" rx="0.694446" transform="rotate(-90 18.0555 13.0555)" fill="white"/>
<rect x="11.9443" y="18.0555" width="1.38889" height="2.77778" rx="0.694447" fill="white"/>
</svg>
