<svg width="24" height="24" viewBox="0 0 24 24" fill="none" xmlns="http://www.w3.org/2000/svg">
<path d="M21.6682 3.56959C20.9078 2.80917 20.0236 2.21801 19.0333 1.81633C18.0783 1.4298 17.0703 1.23022 16.0345 1.23022C15.0013 1.23022 13.9907 1.42475 13.0358 1.80875C12.048 2.20791 11.1613 2.79149 10.4008 3.54686L1.84674 12.0833C1.24547 12.6795 0.780632 13.3742 0.462316 14.1523C0.156632 14.9026 0 15.6959 0 16.5119C0 17.3229 0.154105 18.1136 0.457263 18.8639C0.770526 19.6395 1.23284 20.3342 1.82905 20.9329C2.42526 21.5317 3.12253 21.994 3.89811 22.3098C4.64842 22.6155 5.44168 22.7696 6.25516 22.7696C7.06863 22.7696 7.86189 22.6155 8.61221 22.3123C9.39032 21.9965 10.0876 21.5342 10.6863 20.938L17.4847 14.1675C17.9217 13.7329 18.2577 13.2251 18.4876 12.6592C18.7099 12.1136 18.8211 11.535 18.8211 10.9439C18.8211 9.72622 18.3461 8.58938 17.4847 7.73549C16.6257 6.87149 15.4838 6.39401 14.2686 6.38896C13.051 6.38643 11.9065 6.85885 11.0451 7.72033L6.81095 11.957C6.59621 12.1717 6.48 12.4546 6.48 12.7553C6.48 13.0559 6.59621 13.3414 6.81095 13.5536L6.82863 13.5713C7.26821 14.0134 7.98568 14.0134 8.42779 13.5738L12.672 9.34225C13.5587 8.46309 14.9987 8.45804 15.8854 9.33217C16.3124 9.75659 16.5448 10.325 16.5448 10.9338C16.5448 11.5477 16.3074 12.1237 15.8754 12.5532L9.07958 19.3237C9.06695 19.3364 9.05684 19.3465 9.04926 19.3616C8.29895 20.0917 7.30863 20.4909 6.25768 20.4858C5.19916 20.4808 4.20632 20.069 3.46358 19.3237C3.09221 18.9448 2.80421 18.5027 2.60463 18.0101C2.41263 17.5325 2.31663 17.0273 2.31663 16.5119C2.31663 15.4559 2.72337 14.4681 3.46358 13.7254C3.47368 13.7178 3.48126 13.7102 3.49137 13.7027L12.0278 5.16878C12.0354 5.1612 12.0429 5.15109 12.0505 5.14099C12.5911 4.61046 13.2202 4.19614 13.92 3.91572C14.6021 3.64288 15.3196 3.50646 16.0573 3.50646C16.7949 3.50646 17.5149 3.64793 18.1945 3.92078C18.8994 4.20625 19.5309 4.62309 20.0716 5.1612C20.6122 5.70183 21.0291 6.33341 21.3145 7.03825C21.5899 7.71783 21.7288 8.43783 21.7288 9.17551C21.7288 9.91572 21.5899 10.6382 21.312 11.3229C21.0265 12.0302 20.6046 12.6669 20.0615 13.2126L14.1625 19.0938C13.9478 19.3086 13.8291 19.5915 13.8291 19.8947C13.8291 20.1978 13.9478 20.4808 14.16 20.693L14.1726 20.7056C14.6122 21.1452 15.3297 21.1452 15.7693 20.7056L21.6632 14.8269C22.4236 14.0664 23.0147 13.1797 23.4164 12.1919C23.8055 11.237 24 10.229 24 9.19317C24 8.15991 23.8029 7.15191 23.4164 6.19949C23.0173 5.2117 22.4286 4.32749 21.6682 3.56959Z" fill="white"/>
</svg>
