<svg width="32" height="33" viewBox="0 0 32 33" fill="none" xmlns="http://www.w3.org/2000/svg">
<path d="M3.22864 7.12337C3.29748 7.32986 3.36631 7.53635 3.50397 7.74285C4.05462 8.70648 4.60527 9.67012 5.15592 10.5649C5.29358 10.7714 5.29358 10.9091 5.22475 11.1156C5.01825 11.5974 4.81176 12.0792 4.60527 12.561C4.53644 12.6987 4.46761 12.7675 4.32994 12.8364C3.22864 13.1117 2.12735 13.387 1.02605 13.6623C0.475398 13.8 0.200073 14.1441 0.200073 14.6948C0.200073 15.8649 0.200073 17.1039 0.200073 18.274C0.200073 18.8247 0.475398 19.1688 0.957216 19.3065C2.05851 19.5818 3.15981 19.8571 4.26111 20.1325C4.39877 20.1325 4.46761 20.2701 4.53644 20.4078C4.74293 20.8896 4.88059 21.3714 5.15592 21.8532C5.22475 22.0597 5.22475 22.1974 5.08709 22.4039C4.53644 23.3675 3.98579 24.2623 3.43514 25.226C3.09098 25.7766 3.15981 26.1896 3.5728 26.6026C4.39877 27.4286 5.22475 28.2545 6.05072 29.0805C6.46371 29.4935 6.8767 29.5623 7.42735 29.2182C8.39098 28.6675 9.35462 28.048 10.2494 27.4974C10.3871 27.4286 10.5247 27.4286 10.6624 27.4974C11.1442 27.7039 11.626 27.9104 12.1079 28.1169C12.2455 28.1857 12.3144 28.2545 12.3832 28.461C12.6585 29.5623 12.9338 30.6636 13.2092 31.8338C13.3468 32.3844 13.691 32.5909 14.2416 32.5909C15.4118 32.5909 16.5819 32.5909 17.8209 32.5909C18.3715 32.5909 18.7157 32.3156 18.8533 31.7649C19.1286 30.6636 19.404 29.5623 19.6793 28.3922C19.6793 28.2545 19.817 28.1857 19.8858 28.1169C20.3676 27.9104 20.8494 27.7039 21.4001 27.4974C21.5377 27.4286 21.6754 27.4286 21.8131 27.4974C22.7767 28.048 23.7403 28.6675 24.6351 29.2182C25.1858 29.5623 25.5299 29.4935 26.0118 29.0805C26.8377 28.2545 27.6637 27.4286 28.4897 26.6026C28.9027 26.1896 28.9715 25.7766 28.6273 25.2948C28.0767 24.3312 27.4572 23.3675 26.9066 22.4039C26.8377 22.2662 26.8377 22.1286 26.9066 21.9909C27.1131 21.5091 27.3196 21.0273 27.526 20.5454C27.5949 20.4078 27.6637 20.2701 27.8014 20.2701C28.9715 19.9948 30.0728 19.7195 31.2429 19.4441C31.7936 19.3065 32.0001 18.9623 32.0001 18.4117C32.0001 17.1727 32.0001 16.0026 32.0001 14.7636C32.0001 14.213 31.7247 13.8688 31.2429 13.7312C30.1416 13.4558 28.9715 13.1805 27.8702 12.9052C27.6637 12.8364 27.5949 12.7675 27.526 12.561C27.3196 12.0792 27.1131 11.5974 26.9066 11.1156C26.8377 10.9779 26.8377 10.8403 26.9066 10.7026C27.4572 9.73895 28.0767 8.77532 28.6273 7.81168C28.9715 7.26103 28.9027 6.91687 28.4897 6.43506C27.6637 5.60908 26.8377 4.78311 26.0806 3.95713C25.6676 3.47532 25.2546 3.47532 24.704 3.81947C23.7403 4.37012 22.7767 4.9896 21.8131 5.54025C21.6754 5.60908 21.5377 5.60908 21.4001 5.54025C20.9183 5.33376 20.4364 5.12726 19.9546 4.92077C19.7481 4.85194 19.6793 4.71428 19.6105 4.50778C19.4728 3.40648 19.1975 2.37402 18.9222 1.27272C18.7845 0.515576 18.4403 0.309082 17.6832 0.309082C16.5819 0.309082 15.4118 0.309082 14.3105 0.309082C13.7598 0.309082 13.4157 0.584407 13.278 1.13506C13.0027 2.30519 12.7273 3.47532 12.452 4.57661C12.452 4.71428 12.3144 4.78311 12.1767 4.85194C11.6949 5.05843 11.1442 5.26493 10.6624 5.47142C10.5936 5.54025 10.3871 5.47142 10.3183 5.47142C9.35462 4.92077 8.39098 4.30129 7.42735 3.75064C6.8767 3.40648 6.53254 3.47532 6.05072 3.95713C5.22475 4.71428 4.46761 5.54025 3.64163 6.36623C3.43514 6.57272 3.22864 6.77921 3.22864 7.12337ZM14.9299 2.23635C15.6871 2.23635 16.4442 2.23635 17.2014 2.23635C17.4767 3.33765 17.752 4.43895 18.0273 5.60908C18.165 6.0909 18.4403 6.43506 18.9222 6.57272C19.6105 6.84804 20.2988 7.12337 20.9871 7.46752C21.4689 7.74285 21.8819 7.74285 22.4325 7.39869C23.3273 6.84804 24.291 6.29739 25.1858 5.74674C25.7364 6.29739 26.2871 6.84804 26.8377 7.39869C26.2871 8.36233 25.7364 9.32597 25.117 10.2208C24.8416 10.6338 24.8416 11.0467 25.0481 11.4597C25.3923 12.2169 25.6676 12.974 25.9429 13.7312C26.0806 14.213 26.3559 14.4883 26.8377 14.5571C27.3884 14.6948 28.0079 14.8325 28.5585 14.9701C29.1092 15.1078 29.6598 15.2454 30.2105 15.3831C30.2105 16.1403 30.2105 16.8974 30.2105 17.6545C29.1092 17.9299 28.0079 18.2052 26.9066 18.4805C26.3559 18.6182 26.0806 18.8935 25.9429 19.3753C25.7364 19.9948 25.5988 20.6143 25.2546 21.1649C24.7728 21.9221 24.8416 22.6104 25.3234 23.2987C25.8741 24.0558 26.2871 24.8818 26.7689 25.7078C26.2183 26.2584 25.6676 26.8091 25.1858 27.3597C25.117 27.2909 25.0481 27.2909 24.9793 27.2221C24.0845 26.6714 23.1897 26.1208 22.2949 25.639C21.9507 25.4325 21.6066 25.3636 21.2624 25.5701C20.5053 25.9831 19.6793 26.3273 18.7845 26.6026C18.4403 26.7403 18.165 26.9467 18.0962 27.3597C18.0273 27.7039 17.8897 28.1169 17.8209 28.461C17.6144 29.2182 17.4767 29.9753 17.2702 30.7325C16.5131 30.7325 15.7559 30.7325 14.9988 30.7325C14.7234 29.7 14.4481 28.5987 14.2416 27.5662C14.104 27.0156 13.8286 26.7403 13.278 26.5338C12.5897 26.3273 11.9014 26.0519 11.2819 25.7078C10.7312 25.4325 10.2494 25.4325 9.69877 25.7766C8.80397 26.3273 7.90916 26.8779 7.08319 27.3597C6.53254 26.8091 5.98189 26.2584 5.43124 25.7078C5.98189 24.7441 6.53254 23.7805 7.15202 22.8857C7.42735 22.4727 7.42735 22.1286 7.22085 21.6467C6.8767 20.9584 6.60137 20.2013 6.32605 19.4441C6.11955 18.9623 5.84423 18.687 5.36241 18.5493C4.39877 18.3428 3.36631 18.0675 2.40267 17.7922C2.33384 17.7922 2.26501 17.7234 2.19618 17.7234C2.19618 16.9662 2.19618 16.2091 2.19618 15.4519C2.26501 15.4519 2.33384 15.3831 2.4715 15.3831C3.43514 15.1078 4.39877 14.9013 5.36241 14.626C5.91306 14.4883 6.18838 14.213 6.32605 13.6623C6.53254 12.974 6.8767 12.2169 7.15202 11.5974C7.42735 11.1156 7.42735 10.7026 7.15202 10.2208C6.60137 9.25713 6.05072 8.36233 5.50007 7.46752C6.05072 6.91687 6.60137 6.36622 7.08319 5.81558C8.04683 6.36622 9.01046 6.98571 9.90527 7.53635C10.2494 7.74285 10.5936 7.81168 11.0066 7.60519C11.8325 7.1922 12.6585 6.84804 13.4845 6.57272C13.8286 6.50389 14.0351 6.22856 14.1728 5.88441C14.2416 5.74674 14.2416 5.54025 14.3105 5.40259C14.4481 4.30129 14.7234 3.26882 14.9299 2.23635Z" fill="#FBFBFB"/>
<path d="M16.1 24.0558C11.9013 24.0558 8.52856 20.6831 8.52856 16.4844C8.52856 12.2857 11.9013 8.91296 16.1 8.91296C20.2987 8.91296 23.6714 12.2857 23.6714 16.4844C23.6714 20.6831 20.2987 24.0558 16.1 24.0558ZM16.1 10.2896C12.6584 10.2896 9.90519 13.1117 9.90519 16.4844C9.90519 19.926 12.7273 22.6792 16.1 22.6792C19.5416 22.6792 22.2948 19.8571 22.2948 16.4844C22.2948 13.0428 19.5416 10.2896 16.1 10.2896Z" fill="#FBFBFB"/>
<path d="M16.1 21.3714C13.4156 21.3714 11.1442 19.1688 11.1442 16.4156C11.1442 13.7311 13.3468 11.4597 16.1 11.4597C18.8533 11.4597 21.0559 13.6623 21.0559 16.4156C20.987 19.1688 18.7844 21.3714 16.1 21.3714ZM16.1 12.2169C13.7597 12.2169 11.8325 14.1441 11.8325 16.4844C11.8325 18.8247 13.7597 20.7519 16.1 20.7519C18.4403 20.7519 20.3675 18.8247 20.3675 16.4844C20.2987 14.1441 18.4403 12.2169 16.1 12.2169Z" fill="#FBFBFB"/>
</svg>
