<svg width="32" height="33" viewBox="0 0 32 33" fill="none" xmlns="http://www.w3.org/2000/svg">
<path d="M3.22877 7.12337C3.2976 7.32986 3.36643 7.53635 3.50409 7.74285C4.05474 8.70648 4.60539 9.67012 5.15604 10.5649C5.2937 10.7714 5.2937 10.9091 5.22487 11.1156C5.01838 11.5974 4.81188 12.0792 4.60539 12.561C4.53656 12.6987 4.46773 12.7675 4.33007 12.8364C3.22877 13.1117 2.12747 13.387 1.02617 13.6623C0.47552 13.8 0.200195 14.1441 0.200195 14.6948C0.200195 15.8649 0.200195 17.1039 0.200195 18.274C0.200195 18.8247 0.47552 19.1688 0.957338 19.3065C2.05864 19.5818 3.15994 19.8571 4.26123 20.1325C4.3989 20.1325 4.46773 20.2701 4.53656 20.4078C4.74305 20.8896 4.88071 21.3714 5.15604 21.8532C5.22487 22.0597 5.22487 22.1974 5.08721 22.4039C4.53656 23.3675 3.98591 24.2623 3.43526 25.226C3.0911 25.7766 3.15994 26.1896 3.57292 26.6026C4.3989 27.4286 5.22487 28.2545 6.05084 29.0805C6.46383 29.4935 6.87682 29.5623 7.42747 29.2182C8.3911 28.6675 9.35474 28.048 10.2495 27.4974C10.3872 27.4286 10.5249 27.4286 10.6625 27.4974C11.1444 27.7039 11.6262 27.9104 12.108 28.1169C12.2456 28.1857 12.3145 28.2545 12.3833 28.461C12.6586 29.5623 12.934 30.6636 13.2093 31.8338C13.3469 32.3844 13.6911 32.5909 14.2418 32.5909C15.4119 32.5909 16.582 32.5909 17.821 32.5909C18.3716 32.5909 18.7158 32.3156 18.8534 31.7649C19.1288 30.6636 19.4041 29.5623 19.6794 28.3922C19.6794 28.2545 19.8171 28.1857 19.8859 28.1169C20.3677 27.9104 20.8495 27.7039 21.4002 27.4974C21.5379 27.4286 21.6755 27.4286 21.8132 27.4974C22.7768 28.048 23.7405 28.6675 24.6353 29.2182C25.1859 29.5623 25.5301 29.4935 26.0119 29.0805C26.8379 28.2545 27.6638 27.4286 28.4898 26.6026C28.9028 26.1896 28.9716 25.7766 28.6275 25.2948C28.0768 24.3312 27.4573 23.3675 26.9067 22.4039C26.8379 22.2662 26.8379 22.1286 26.9067 21.9909C27.1132 21.5091 27.3197 21.0273 27.5262 20.5454C27.595 20.4078 27.6638 20.2701 27.8015 20.2701C28.9716 19.9948 30.0729 19.7195 31.243 19.4441C31.7937 19.3065 32.0002 18.9623 32.0002 18.4117C32.0002 17.1727 32.0002 16.0026 32.0002 14.7636C32.0002 14.213 31.7249 13.8688 31.243 13.7312C30.1418 13.4558 28.9716 13.1805 27.8703 12.9052C27.6638 12.8364 27.595 12.7675 27.5262 12.561C27.3197 12.0792 27.1132 11.5974 26.9067 11.1156C26.8379 10.9779 26.8379 10.8403 26.9067 10.7026C27.4573 9.73895 28.0768 8.77532 28.6275 7.81168C28.9716 7.26103 28.9028 6.91687 28.4898 6.43506C27.6638 5.60908 26.8379 4.78311 26.0807 3.95713C25.6677 3.47532 25.2547 3.47532 24.7041 3.81947C23.7405 4.37012 22.7768 4.9896 21.8132 5.54025C21.6755 5.60908 21.5379 5.60908 21.4002 5.54025C20.9184 5.33376 20.4366 5.12726 19.9547 4.92077C19.7482 4.85194 19.6794 4.71428 19.6106 4.50778C19.4729 3.40648 19.1976 2.37402 18.9223 1.27272C18.7846 0.515576 18.4405 0.309082 17.6833 0.309082C16.582 0.309082 15.4119 0.309082 14.3106 0.309082C13.7599 0.309082 13.4158 0.584407 13.2781 1.13506C13.0028 2.30519 12.7275 3.47532 12.4521 4.57661C12.4521 4.71428 12.3145 4.78311 12.1768 4.85194C11.695 5.05843 11.1444 5.26493 10.6625 5.47142C10.5937 5.54025 10.3872 5.47142 10.3184 5.47142C9.35474 4.92077 8.3911 4.30129 7.42747 3.75064C6.87682 3.40648 6.53266 3.47532 6.05084 3.95713C5.22487 4.71428 4.46773 5.54025 3.64175 6.36623C3.43526 6.57272 3.22877 6.77921 3.22877 7.12337ZM14.9301 2.23635C15.6872 2.23635 16.4444 2.23635 17.2015 2.23635C17.4768 3.33765 17.7521 4.43895 18.0275 5.60908C18.1651 6.0909 18.4405 6.43506 18.9223 6.57272C19.6106 6.84804 20.2989 7.12337 20.9872 7.46752C21.469 7.74285 21.882 7.74285 22.4327 7.39869C23.3275 6.84804 24.2911 6.29739 25.1859 5.74674C25.7366 6.29739 26.2872 6.84804 26.8379 7.39869C26.2872 8.36233 25.7366 9.32597 25.1171 10.2208C24.8418 10.6338 24.8418 11.0467 25.0482 11.4597C25.3924 12.2169 25.6677 12.974 25.9431 13.7312C26.0807 14.213 26.356 14.4883 26.8379 14.5571C27.3885 14.6948 28.008 14.8325 28.5586 14.9701C29.1093 15.1078 29.6599 15.2454 30.2106 15.3831C30.2106 16.1403 30.2106 16.8974 30.2106 17.6545C29.1093 17.9299 28.008 18.2052 26.9067 18.4805C26.356 18.6182 26.0807 18.8935 25.9431 19.3753C25.7366 19.9948 25.5989 20.6143 25.2547 21.1649C24.7729 21.9221 24.8418 22.6104 25.3236 23.2987C25.8742 24.0558 26.2872 24.8818 26.769 25.7078C26.2184 26.2584 25.6677 26.8091 25.1859 27.3597C25.1171 27.2909 25.0482 27.2909 24.9794 27.2221C24.0846 26.6714 23.1898 26.1208 22.295 25.639C21.9508 25.4325 21.6067 25.3636 21.2625 25.5701C20.5054 25.9831 19.6794 26.3273 18.7846 26.6026C18.4405 26.7403 18.1651 26.9467 18.0963 27.3597C18.0275 27.7039 17.8898 28.1169 17.821 28.461C17.6145 29.2182 17.4768 29.9753 17.2703 30.7325C16.5132 30.7325 15.756 30.7325 14.9989 30.7325C14.7236 29.7 14.4482 28.5987 14.2418 27.5662C14.1041 27.0156 13.8288 26.7403 13.2781 26.5338C12.5898 26.3273 11.9015 26.0519 11.282 25.7078C10.7314 25.4325 10.2495 25.4325 9.6989 25.7766C8.80409 26.3273 7.90929 26.8779 7.08331 27.3597C6.53266 26.8091 5.98201 26.2584 5.43136 25.7078C5.98201 24.7441 6.53266 23.7805 7.15214 22.8857C7.42747 22.4727 7.42747 22.1286 7.22097 21.6467C6.87682 20.9584 6.60149 20.2013 6.32617 19.4441C6.11968 18.9623 5.84435 18.687 5.36253 18.5493C4.3989 18.3428 3.36643 18.0675 2.40279 17.7922C2.33396 17.7922 2.26513 17.7234 2.1963 17.7234C2.1963 16.9662 2.1963 16.2091 2.1963 15.4519C2.26513 15.4519 2.33396 15.3831 2.47162 15.3831C3.43526 15.1078 4.3989 14.9013 5.36253 14.626C5.91318 14.4883 6.18851 14.213 6.32617 13.6623C6.53266 12.974 6.87682 12.2169 7.15214 11.5974C7.42747 11.1156 7.42747 10.7026 7.15214 10.2208C6.60149 9.25713 6.05084 8.36233 5.50019 7.46752C6.05084 6.91687 6.60149 6.36622 7.08331 5.81558C8.04695 6.36622 9.01058 6.98571 9.90539 7.53635C10.2495 7.74285 10.5937 7.81168 11.0067 7.60519C11.8327 7.1922 12.6586 6.84804 13.4846 6.57272C13.8288 6.50389 14.0353 6.22856 14.1729 5.88441C14.2418 5.74674 14.2418 5.54025 14.3106 5.40259C14.4482 4.30129 14.7236 3.26882 14.9301 2.23635Z" fill="#333333"/>
<path d="M16.1001 24.0558C11.9014 24.0558 8.52869 20.6831 8.52869 16.4844C8.52869 12.2857 11.9014 8.91296 16.1001 8.91296C20.2988 8.91296 23.6715 12.2857 23.6715 16.4844C23.6715 20.6831 20.2988 24.0558 16.1001 24.0558ZM16.1001 10.2896C12.6586 10.2896 9.90531 13.1117 9.90531 16.4844C9.90531 19.926 12.7274 22.6792 16.1001 22.6792C19.5417 22.6792 22.2949 19.8571 22.2949 16.4844C22.2949 13.0428 19.5417 10.2896 16.1001 10.2896Z" fill="#333333"/>
<path d="M16.1001 21.3714C13.4157 21.3714 11.1443 19.1688 11.1443 16.4156C11.1443 13.7311 13.3469 11.4597 16.1001 11.4597C18.8534 11.4597 21.056 13.6623 21.056 16.4156C20.9871 19.1688 18.7845 21.3714 16.1001 21.3714ZM16.1001 12.2169C13.7599 12.2169 11.8326 14.1441 11.8326 16.4844C11.8326 18.8247 13.7599 20.7519 16.1001 20.7519C18.4404 20.7519 20.3677 18.8247 20.3677 16.4844C20.2988 14.1441 18.4404 12.2169 16.1001 12.2169Z" fill="#333333"/>
</svg>
