<svg width="24" height="24" viewBox="0 0 24 24" fill="none" xmlns="http://www.w3.org/2000/svg">
<g clip-path="url(#clip0_58_159)">
<path d="M12 2L23.2583 21.5H0.74167L12 2Z" fill="#FFA217"/>
<path d="M13.513 18.0327C13.513 18.9138 12.9223 19.5716 12.0095 19.5716H11.9778C11.0967 19.5716 10.4889 18.9138 10.4889 18.0327C10.4889 17.1212 11.1149 16.4952 12.0095 16.4952C12.9041 16.4952 13.4971 17.1187 13.513 18.0327ZM11.0466 15.6507H12.976L13.3446 7.99424H10.6744L11.0466 15.6507ZM23.7784 22.1124C23.499 22.57 23.0023 22.8519 22.4678 22.8519H1.53409C0.98126 22.8519 0.471148 22.5542 0.197856 22.0734C-0.0718143 21.5927 -0.065694 21.0056 0.216217 20.531L10.7221 1.89263C10.9979 1.42773 11.497 1.14819 12.0364 1.14819H12.0778C12.633 1.16156 13.1321 1.47519 13.3909 1.96582L23.8224 20.6053C24.0713 21.0799 24.0603 21.6499 23.7784 22.1124ZM22.4678 21.313L12.0351 2.67965L1.53534 21.313H22.4678Z" fill="white"/>
</g>
<defs>
<clipPath id="clip0_58_159">
<rect width="24" height="24" fill="white"/>
</clipPath>
</defs>
</svg>
