<svg width="24" height="24" viewBox="0 0 24 24" fill="none" xmlns="http://www.w3.org/2000/svg">
<g clip-path="url(#clip0_57_131)">
<path d="M13.5129 17.8845C13.5129 18.7656 12.9222 19.4234 12.0094 19.4234H11.9777C11.0966 19.4234 10.4888 18.7656 10.4888 17.8845C10.4888 16.973 11.1148 16.347 12.0094 16.347C12.904 16.347 13.497 16.9705 13.5129 17.8845ZM11.0465 15.5025H12.9759L13.3445 7.84605H10.6743L11.0465 15.5025ZM23.7783 21.9642C23.4989 22.4218 23.0022 22.7038 22.4677 22.7038H1.534C0.981168 22.7038 0.471056 22.406 0.197764 21.9252C-0.0719059 21.4445 -0.0657855 20.8574 0.216125 20.3828L10.722 1.74443C10.9978 1.27954 11.4969 1 12.0363 1H12.0777C12.6329 1.01336 13.1321 1.327 13.3909 1.81763L23.8223 20.4571C24.0712 20.9317 24.0602 21.5017 23.7783 21.9642ZM22.4677 21.1648L12.035 2.53146L1.53525 21.1648H22.4677Z" fill="#010002" fill-opacity="0.15"/>
</g>
<defs>
<clipPath id="clip0_57_131">
<rect width="23.9999" height="23.7038" fill="white"/>
</clipPath>
</defs>
</svg>
